<?xml version="1.0" encoding="utf-8"?>
<!-- Generator: Adobe Illustrator 17.0.0, SVG Export Plug-In . SVG Version: 6.00 Build 0)  -->
<!DOCTYPE svg PUBLIC "-//W3C//DTD SVG 1.1//EN" "http://www.w3.org/Graphics/SVG/1.1/DTD/svg11.dtd">
<svg version="1.1" id="Layer_1" xmlns="http://www.w3.org/2000/svg" xmlns:xlink="http://www.w3.org/1999/xlink" x="0px" y="0px"
	 width="600px" height="840px" viewBox="0 0 600 840" enable-background="new 0 0 600 840" xml:space="preserve">
<g>
	<g>
		<g>
			<g>
				<path fill="#FFFFFF" d="M49.748,707.565l-22.742-61.322l-7.512-20.709v82.031H0V572.333h19.088l21.117,61.931l6.902,20.913
					v-82.844h19.289v135.232H49.748z"/>
				<path fill="#FFFFFF" d="M112.488,710c-19.492,0-32.285-13.198-32.285-32.082v-75.94c0-18.68,12.793-32.082,32.285-32.082
					s32.283,13.402,32.283,32.082v75.94C144.771,696.802,131.98,710,112.488,710z M123.047,600.354
					c0-6.496-3.857-10.965-10.559-10.965s-10.559,4.469-10.559,10.965v79.19c0,6.497,3.857,10.965,10.559,10.965
					s10.559-4.468,10.559-10.965V600.354z"/>
				<path fill="#FFFFFF" d="M194.519,592.029v115.535h-21.523V592.029h-20.912v-19.696h62.943v19.696H194.519z"/>
				<path fill="#FFFFFF" d="M287.717,592.029v115.535h-21.523V592.029h-20.916v-19.696h62.947v19.696H287.717z"/>
				<path fill="#FFFFFF" d="M347.412,710c-19.494,0-32.285-13.198-32.285-32.082v-75.94c0-18.68,12.791-32.082,32.285-32.082
					c19.492,0,32.285,13.402,32.285,32.082v75.94C379.697,696.802,366.904,710,347.412,710z M357.971,600.354
					c0-6.496-3.857-10.965-10.559-10.965s-10.559,4.469-10.559,10.965v79.19c0,6.497,3.857,10.965,10.559,10.965
					s10.559-4.468,10.559-10.965V600.354z"/>
				<path fill="#FFFFFF" d="M426.394,707.565h-32.892V572.333h32.892c19.492,0,30.863,12.185,30.863,32.284v71.474
					C457.258,696.396,445.887,707.565,426.394,707.565z M435.736,604.416c0-8.529-3.25-12.793-10.764-12.793h-9.949v96.854h9.949
					c7.514,0,10.764-4.467,10.764-12.792V604.416z"/>
				<path fill="#FFFFFF" d="M510.254,707.565l-3.453-26.396h-19.695l-4.061,26.396H463.35l22.537-135.232h23.758l22.537,135.232
					H510.254z M497.664,607.867l-7.918,55.229h14.619L497.664,607.867z"/>
				<path fill="#FFFFFF" d="M574.213,653.146v54.418h-21.523v-54.418l-24.363-80.813h21.928l14.416,56.651l14.012-56.651H600
					L574.213,653.146z"/>
			</g>
			<g>
				<g>
					<path fill="#FFFFFF" d="M300,182.64l8.945,4.471L430,247.64V135L304.383,67.359C304.765,66.655,305,65.859,305,65V52.441
						C336.665,38.856,368.335,74,400,55c-6.67-2.665-13.33-7.733-20-14.241c6.665-6.826,13.335-15.094,20-25.759
						c-31.665,19-63.335-16.144-95-2.559V5c0-2.762-2.236-5-5-5c-2.764,0-5,2.238-5,5v60c0,0.859,0.235,1.655,0.617,2.359L170,135
						v112.64l121.055-60.529L300,182.64z M270,135c0-16.569,13.431-30,30-30c16.569,0,30,13.431,30,30
						c0,16.569-13.431,30.001-30,30.001C283.431,165.001,270,151.569,270,135z"/>
					<polygon fill="#FFFFFF" points="300,205.001 100,305 100,525 260,525 260,365 340,365 340,525 500,525 500,305 					"/>
				</g>
			</g>
			<g>
				<path fill="#FFFFFF" d="M91.447,778.185c-1.491,1.363-3.112,1.815-7.392,1.815h-12.58c-4.28,0-5.901-0.452-7.392-1.815
					c-2.529-2.27-4.086-5.575-4.086-20.879c0-15.303,1.556-18.61,4.086-20.88c1.491-1.361,3.112-1.815,7.392-1.815h12.58
					c4.28,0,5.9,0.454,7.392,1.815c2.529,2.27,3.696,5.252,3.826,13.1h-7.262c-0.195-5.707-0.778-7.328-1.492-7.977
					c-0.518-0.454-1.037-0.715-3.242-0.715H72.254c-2.205,0-2.723,0.261-3.242,0.715c-0.714,0.648-1.622,2.658-1.622,15.757
					c0,13.098,0.908,15.107,1.622,15.757c0.519,0.455,1.037,0.714,3.242,0.714h11.023c2.205,0.064,2.724-0.259,3.242-0.714
					c0.713-0.649,1.296-1.945,1.492-8.69h7.327C95.015,773.386,93.976,775.915,91.447,778.185z"/>
				<path fill="#FFFFFF" d="M146.948,734.61c4.28,0,5.9,0.454,7.392,1.815c2.529,2.27,4.085,5.577,4.085,20.88
					c0,15.304-1.556,18.609-4.085,20.879c-1.492,1.363-3.112,1.815-7.392,1.815h-12.969c-4.28,0-5.9-0.452-7.392-1.815
					c-2.528-2.27-4.084-5.575-4.084-20.879c0-15.303,1.556-18.61,4.084-20.88c1.492-1.361,3.112-1.815,7.392-1.815H146.948z
					 M131.515,773.062c0.519,0.455,1.038,0.714,3.242,0.714h11.413c2.205,0.064,2.724-0.259,3.243-0.714
					c0.713-0.649,1.621-2.659,1.621-15.757c0-13.099-0.908-15.108-1.621-15.757c-0.519-0.454-1.038-0.715-3.243-0.715h-11.413
					c-2.204,0-2.723,0.261-3.242,0.715c-0.713,0.648-1.621,2.658-1.621,15.757C129.894,770.403,130.802,772.413,131.515,773.062z"/>
				<path fill="#FFFFFF" d="M211.592,767.227h-17.313L190.324,780h-7.197l14.395-43.833c0.454-1.492,0.842-1.751,2.593-1.751h6.29
					c1.621,0,2.075,0.259,2.593,1.751L223.393,780h-7.846L211.592,767.227z M196.16,761.132h13.487l-6.225-20.362h-0.973
					L196.16,761.132z"/>
				<path fill="#FFFFFF" d="M256.588,773.776h21.981V780h-29.243v-45.39h7.262V773.776z"/>
				<path fill="#FFFFFF" d="M305.605,780v-45.39h7.262V780H305.605z"/>
				<path fill="#FFFFFF" d="M361.108,740.834V780h-7.261v-39.166h-14.266v-6.224h35.791v6.224H361.108z"/>
				<path fill="#FFFFFF" d="M402.086,780v-45.39h7.263V780H402.086z"/>
				<path fill="#FFFFFF" d="M463.294,734.61c4.28,0,5.901,0.454,7.393,1.815c2.528,2.27,4.085,5.577,4.085,20.88
					c0,15.304-1.557,18.609-4.085,20.879c-1.491,1.363-3.112,1.815-7.393,1.815h-12.968c-4.281,0-5.901-0.452-7.394-1.815
					c-2.529-2.27-4.084-5.575-4.084-20.879c0-15.303,1.555-18.61,4.084-20.88c1.492-1.361,3.112-1.815,7.394-1.815H463.294z
					 M447.861,773.062c0.519,0.455,1.037,0.714,3.243,0.714h11.411c2.206,0.064,2.724-0.259,3.243-0.714
					c0.712-0.649,1.62-2.659,1.62-15.757c0-13.099-0.908-15.108-1.62-15.757c-0.52-0.454-1.037-0.715-3.243-0.715h-11.411
					c-2.206,0-2.725,0.261-3.243,0.715c-0.712,0.648-1.62,2.658-1.62,15.757C446.241,770.403,447.149,772.413,447.861,773.062z"/>
				<path fill="#FFFFFF" d="M539.998,780h-7.392c-1.881,0-2.594-0.388-3.373-2.14l-17.314-33.394h-0.971V780h-7.068v-45.39h8.039
					c1.881,0,2.53,0.39,3.308,2.14l16.729,31.838h0.973V734.61h7.068V780z"/>
			</g>
			<g>
				<path fill="#FFFFFF" d="M320.145,521.342c-0.089-0.192-0.089-0.221-0.089-0.221c-0.133-0.781-1.665-1.496-1.665-1.496
					s0-0.486,0-0.663c0-0.177-0.818-0.708-1.039-0.774s-1.481,0.243-1.481,0.243l-1.216-0.575c-0.022-0.486-0.862-0.928-0.862-0.928
					c0.022-0.044,0.088-0.752,0.088-0.752c0.597,0.111,0.442-0.376,0.442-0.376s0.044-0.531-0.597-0.973
					c-0.641-0.442-2.343-0.84-2.343-0.84l-0.155-0.144c0.387-0.055-0.099-0.752-0.099-0.752c0.387-0.21,0.033-1.116,0.033-1.116
					c0.243-0.177,0.332-1.017,0.133-1.636c-0.199-0.619-0.287-1.968-0.287-1.968c0.205-0.109,0.002-1.15,0.002-1.15
					c-0.111-0.27-0.267-0.354-0.267-0.354s0.06-7.452,0.133-9.064c0.135-3.007-0.442-5.969-0.509-6.632
					c-0.066-0.663-0.309-2.741-0.332-3.051c-0.022-0.309-0.022-1.194,0.044-1.614c0.066-0.42-0.111-1.415-0.133-1.746s0-1.99,0-1.99
					l-0.021-0.075c0.661-0.117,1.205-0.212,1.436-0.257c0.796-0.155,0.752-0.553,0.752-0.553c0.597,0.044,3.404-1.415,4.09-1.857
					c0.685-0.442,0.619-1.039,0.619-1.039c-0.066-0.884-3.493-12.27-3.493-12.27l0.243,0.111c0,0,0.111,0.464,0.133,0.641
					c0.022,0.177,1.017-0.066,1.282-0.044c0.265,0.022,1.216-0.597,1.304-0.752c0.089-0.155,0.73-0.243,0.928-0.398
					c0.199-0.155,0.42-0.84,0.553-1.128c0.133-0.287,0.199-1.393,0.221-1.57c0.022-0.177,0.464-1.348,0.508-1.57
					c0.044-0.221-0.332-1.437-0.531-1.879c-0.199-0.442-0.619-3.891-0.641-4.355c-0.022-0.464-0.332-2.476-0.553-3.25
					c-0.221-0.774-1.017-5.195-1.348-6.809c-0.332-1.614-1.658-6.92-1.968-7.693c-0.309-0.774-0.42-3.736-0.464-4.046
					c-0.044-0.31,0-4.51,0-4.51s1.282-0.995,2.277-1.548c0.995-0.553,0.995-1.525,0.995-1.525s-0.84-1.945-1.282-2.653
					c-0.442-0.707-1.99-3.891-2.343-4.333c-0.354-0.442-1.371-0.752-1.768-0.928c-0.398-0.177-2.609-0.973-3.272-1.105
					c-0.663-0.133-1.621-0.339-1.621-0.339l-0.236-0.192c0,0-0.472-0.457-0.619-0.545c-0.147-0.088-0.796-0.825-0.84-0.899
					c-0.044-0.074-0.884-0.781-1.223-0.943c-0.339-0.162-0.501-0.354-0.501-0.354l-0.073-0.004c0.13-0.377,0.294-1.4,0.294-1.4
					c0.365-0.055,1.415-1.758,1.415-1.758c0.177,0,0.376-0.122,0.376-0.122c0.486,0.044,0.951-0.575,1.172-0.917
					c0.221-0.343,0.332-1.614,0.354-1.746c0.022-0.133,0.155-0.442,0.243-0.719c0.088-0.276,0.077-0.497,0.055-1.116
					c-0.022-0.619-0.387-0.796-0.42-0.873c-0.033-0.077,0.088-0.254,0.088-0.254c0.973-1.581,0.619-3.979,0.486-4.444
					c-0.133-0.464-1.452-3.217-1.662-3.404s-0.918-0.921-1.061-1.12c-0.144-0.199-0.859-0.626-1.157-1.002
					c-0.299-0.376-1.525-0.951-1.658-0.995c-0.133-0.044-0.619-0.099-0.884-0.144c-0.265-0.044-0.663-0.099-1.161-0.144
					c-0.497-0.044-0.431-0.033-0.73,0c-0.298,0.033-0.497,0.166-0.652,0.265c-0.155,0.1-0.431-0.033-0.851-0.133
					c-0.42-0.099-0.962-0.033-1.26,0c-0.298,0.033-0.564,0.287-0.862,0.354c-0.298,0.066-0.641,0.42-0.917,0.486
					c-0.276,0.066-0.497,0.52-0.807,0.796c-0.309,0.276-0.508,0.442-1.028,0.884l-0.147,0.368c0,0-0.107-0.081-0.162,0.306
					c-0.055,0.387-0.276,1.116-0.542,1.348c-0.265,0.232-0.442,0.73-0.597,1.161c-0.155,0.431-0.243,1.337-0.309,1.625
					c-0.066,0.287-0.111,0.984-0.077,1.139c0.033,0.155-0.099,0.641-0.166,0.906c-0.066,0.265,0.033,0.741,0.077,1.15
					c0.044,0.409,0.553,1.337,0.763,1.393c0.21,0.055,0.033,0.177,0.033,0.177c-0.52,0.486-0.276,1.813-0.166,2.1
					c0.111,0.287,0.398,0.807,0.431,1.293c0.033,0.486,0.52,1.249,0.818,1.559c0.298,0.31,1.127,0.155,1.127,0.155
					c0.199,0.663,1.238,1.614,1.326,1.769c0.041,0.071,0.086,0.359,0.124,0.649c-0.036,0.012-0.74,0.252-0.927,0.324
					c-0.192,0.074-0.722,1.179-0.973,1.489c-0.25,0.31-1.091,1.562-1.091,1.562l-0.074,0.295c0,0-1.002,0.472-1.503,0.56
					c-0.501,0.088-2.24,0.295-3.39,0.531c-1.15,0.236-1.857,1.975-1.857,1.975c-0.472,0.118-1.179,1.415-1.385,1.887
					c-0.206,0.472-1.562,3.39-1.651,3.743c-0.089,0.354-0.796,1.739-0.825,1.945c-0.027,0.188,1.018,0.96,1.208,1.098
					c-0.218,1.694-1.065,8.155-1.429,9.056c-0.42,1.039-0.862,4.001-0.862,5.571s1.105,8.445,1.194,8.865
					c0.088,0.42,0.066,1.371,0,1.791c-0.066,0.42,0.221,1.304,0.287,1.503c0.066,0.199-0.088,1.172-0.265,2.034
					c-0.177,0.862-0.287,3.272-0.287,3.272c-0.265,0.929-0.221,1.702-0.155,2.211c0.066,0.508,1.349,2.41,1.349,2.41
					c0.155,0.221,0.707-0.177,0.707-0.177c0.066,0.442,1.407,1.157,1.407,1.157s-0.56,6.75-0.707,7.575
					c-0.147,0.825-0.501,7.222-0.501,7.222c0.265,0.324,2.682,0.501,2.682,0.501c-0.037,0.648,0.192,0.811,0.192,0.811
					c0.641-0.133,3.161,0.044,3.692,0.066c0.379,0.016,1.154,0.212,2.13,0.347l-0.001,0.014c0,0-0.059,4.097-0.059,4.716
					c0,0.619-0.71,6.514-0.766,7.87c-0.11,2.638,1.205,9.127,1.205,9.127c-0.497,0.1-0.276,0.984-0.232,1.315
					c0.044,0.332,0.221,0.619,0.177,0.796c-0.044,0.177,0.199,0.553,0.332,0.73c0.133,0.177,0.066,0.84-0.022,1.039
					c-0.088,0.199,0.088,0.818,0.088,0.818s-0.597,1.105-0.641,1.393c-0.044,0.287,0.111,0.73,0.287,0.796
					c0.177,0.066,0.376,0.354,0.332,0.508c-0.044,0.155,0.31,0.619,0.354,0.685c0.044,0.066-0.111,0.243-0.133,0.354
					c-0.022,0.111,0.111,0.398,0.111,0.398l-0.243,0.155l-0.663,2.343l-0.354,0.906c-0.287,0.265-0.553,2.1-0.553,2.1
					c-0.265,0.287-0.354,1.26-0.42,1.525c-0.066,0.265-0.155,0.641-0.155,0.641s-0.287,0.354-0.398,0.73
					c-0.111,0.376,0.089,1.326,0.133,1.503c0.044,0.177,2.657,1.172,4.691,1.216c2.034,0.044,4.616-0.42,4.733-0.617
					c0.116-0.196,0.149-1.24,0.104-1.528c-0.046-0.287-0.419-0.243-0.419-0.243c0.111-0.221-0.383-1.312-0.383-1.312
					c0.089-0.118-0.295-1.474-0.295-1.474c0.737-0.472,0.59-2.004,0.501-2.211c-0.088-0.206,0-1.002,0-1.002
					c0.265-0.147-0.383-2.004-0.383-2.004l-0.28-1.076c0,0,0.221-0.56,0.265-0.737c0.044-0.177-0.118-0.84-0.089-1.017
					c0.03-0.177,0.575-0.796,0.575-1.105s-1.415-1.503-1.489-1.68c-0.074-0.177,0.074-0.575,0.118-0.752
					c0.044-0.177-0.295-0.811-0.295-0.811s0.015-0.634,0.015-0.811c0-0.177,0.324-1.061,0.354-1.4
					c0.029-0.339-0.354-0.457-0.354-0.457s0.656-6.426,0.56-7.752c-0.074-1.031-0.118-4.746-0.029-5.512
					c0.088-0.766,1.12-3.861,1.458-5.415c0.307-1.413,0.179-2.559,0.165-2.679c0.461-0.007,0.809-0.011,0.979-0.011
					c0.36,0,0.882,0.028,1.421,0.061l-0.006,0.027c0,0,0.066,1.724,0.11,2.343c0.044,0.619,1.349,3.847,1.452,4.355
					c0.103,0.508,0.073,4.421,0.007,5.018c-0.066,0.597,0.354,3.316,0.531,3.869c0.177,0.553,0.575,2.83,0.641,3.581
					c0.066,0.752,0.685,4.355,0.685,4.355c-0.368,0-0.295,1.046-0.354,1.518c-0.059,0.472,0.589,1.12,0.589,1.12
					c-0.118,0.531,0.074,1.282,0.074,1.282c-0.324,0.059-0.575,0.604-0.648,0.781c-0.074,0.177-0.03,1.533-0.03,1.533
					c0.766,0.619,0.575,0.958,0.575,0.958c-0.28-0.015-0.324,0.354-0.398,0.59s-0.044,0.545-0.221,0.973
					c-0.177,0.427-0.383,0.707-0.486,0.855c-0.103,0.147-0.457,2.594-0.457,2.594c-0.531,0.029-0.634,0.766-0.634,0.928
					c0,0.162-0.133,1.739-0.162,1.872c-0.029,0.133,0.236,0.427,0.457,0.575s4.746,1.032,5.527,1.091
					c0.781,0.059,5.63,1.26,6.927,1.282c1.297,0.022,3.434-0.059,3.64-0.103c0.206-0.044,0.398-0.501,0.398-0.501
					c0.25-0.059,0.354-0.796,0.354-0.796c0.177-0.28-0.088-1.002-0.088-1.002C320.587,522.271,320.233,521.534,320.145,521.342z
					 M287.647,445.396c-0.979,3.47-1.714,6.421-2.264,8.919c-0.355-0.919-0.699-1.964-0.772-2.339
					c-0.133-0.685,0.022-5.173,0.133-6.079c0.111-0.906,0.31-4.245,0.354-4.886c0.044-0.641,0.486-2.343,0.619-2.984
					c0.133-0.641,1.215-5.097,1.215-5.097l0.063-0.617c0.014,0.133-0.016,0.363-0.063,0.617c-0.102,0.55-0.286,1.206-0.286,1.206
					l0.206,0.472c-0.56,1.415,0.531,3.095,1.002,4.48C288.325,440.474,287.647,445.396,287.647,445.396z M313.41,453.119
					c0.206,0.413,1.002,2.505,0.766,3.124c-0.236,0.619-0.766,1.945-0.752,2.859c0.015,0.914,0.147,1.813,0.177,2.078
					c0.03,0.265-0.03,2.137-0.103,2.594c-0.074,0.457-0.236,1.621,0.442,1.636c0.678,0.015,0.973-0.678,1.017-1.282
					c0.044-0.604,0.383-2.196,0.265-2.314c0,0,0.369,0.192,0.457,0.088c0,0-0.118,1.267,0.251,1.724c0,0-0.192,0.84-0.133,1.12
					c0,0-0.811,0.31-0.811,0.914c0,0-0.118,0.427-0.28,0.368c-0.162-0.059-0.766-0.486-1.408-0.265c0,0-1.378-9.535-1.511-10.361
					c-0.133-0.825-0.825-5.262-1.12-8.887C310.668,446.516,313.203,452.706,313.41,453.119z"/>
			</g>
		</g>
	</g>
	<g>
		<path fill="#FFFFFF" d="M60.385,822.163v-1.76h34.234v1.76H60.385z"/>
		<path fill="#FFFFFF" d="M126.504,806.006h13.477c2.12,0,3.4,0.279,4.319,1.199c1.08,1.08,1.68,2.44,1.68,5.959
			c0,4-1.359,5.519-3.679,6.239v0.04c2.879,0.64,3.919,2.399,3.919,6.799c0,4.359-0.72,5.56-1.72,6.559
			c-0.92,0.88-2.28,1.2-4.319,1.2h-13.678V806.006z M139.622,818.563c1.68,0,2.48-0.32,3.08-0.92c0.56-0.56,1.2-1.6,1.2-4.52
			c0-2.879-0.56-3.999-1.16-4.559c-0.6-0.6-1.48-0.76-3-0.76h-11.158v10.758H139.622z M142.981,821.323
			c-0.68-0.68-1.48-0.96-3.079-0.96h-11.318v11.838h11.398c1.52,0,2.4-0.16,3-0.76c0.56-0.56,1.16-1.479,1.16-5.159
			C144.141,823.163,143.661,822.003,142.981,821.323z"/>
		<path fill="#FFFFFF" d="M177.461,812.765v21.236h-1.999v-3.079c-2.959,2.359-4.04,3.119-6.639,3.119h-2.919
			c-2.08,0-2.919-0.28-3.679-1.08c-0.84-0.8-1.08-2.039-1.08-3.759v-16.438h2v16.317c0,1.359,0.2,2.039,0.72,2.56
			c0.44,0.44,0.88,0.64,2.6,0.64h2.799c2.12,0,3.32-0.56,6.199-2.64v-16.877H177.461z"/>
		<path fill="#FFFFFF" d="M195.183,808.125h-2.56v-3.319h2.56V808.125z M194.903,834.001h-2v-21.236h2V834.001z"/>
		<path fill="#FFFFFF" d="M210.383,834.001v-28.795h2v28.795H210.383z"/>
		<path fill="#FFFFFF" d="M242.221,834.001v-3.039c-2.92,2.359-4.12,3.079-6.639,3.079h-2.279c-2.48,0-3.72-0.44-4.64-1.359
			c-1.32-1.32-1.68-3.04-1.68-9.319c0-6.238,0.36-7.958,1.68-9.318c0.92-0.92,2.16-1.319,4.64-1.319h2.279
			c2.56,0,3.68,0.76,6.639,3.079v-10.598h1.999v28.795H242.221z M242.221,829.602v-12.478c-2.68-1.88-3.919-2.64-6.199-2.64h-2.439
			c-2,0-2.76,0.359-3.399,0.96c-0.92,0.92-1.2,2.279-1.2,7.918c0,5.64,0.28,7.039,1.2,7.919c0.64,0.64,1.4,1,3.399,1h2.399
			C238.261,832.281,239.501,831.562,242.221,829.602z"/>
		<path fill="#FFFFFF" d="M261.942,808.125h-2.56v-3.319h2.56V808.125z M261.663,834.001h-2v-21.236h2V834.001z"/>
		<path fill="#FFFFFF" d="M277.143,834.001v-21.236h2v3.039c2.919-2.319,4.039-3.079,6.639-3.079h2.919c2.08,0,2.919,0.28,3.68,1.04
			c0.84,0.84,1.08,2.079,1.08,3.759v16.478h-2v-16.317c0-1.359-0.2-2.039-0.72-2.56c-0.44-0.439-0.919-0.64-2.6-0.64h-2.799
			c-2.16,0-3.359,0.56-6.199,2.64v16.877H277.143z"/>
		<path fill="#FFFFFF" d="M313.021,840c-1.84,0-2.76-0.4-3.36-1c-0.879-0.88-1.159-1.68-1.199-4.079h2c0.08,1.76,0.24,2.239,0.8,2.8
			c0.36,0.359,0.88,0.6,2.239,0.6h6.68c1.119,0,1.68-0.2,2.119-0.64c0.48-0.481,0.84-1.04,0.84-3.56v-4.64
			c-2.879,2.32-4.08,3.04-6.6,3.04h-2.199c-2.52,0-3.76-0.44-4.68-1.36c-1.319-1.319-1.639-3.119-1.639-8.559
			c0-5.438,0.319-7.198,1.639-8.559c0.92-0.92,2.16-1.319,4.68-1.319h2.199c2.52,0,3.721,0.76,6.6,3.039v-2.999h2v21.196
			c0,3.039-0.44,4.119-1.36,5.039c-0.68,0.68-1.6,1-3.359,1H313.021z M323.14,828.162v-11.078c-2.68-1.88-3.92-2.64-6.199-2.64
			h-2.319c-2.04,0-2.8,0.359-3.44,1c-0.88,0.92-1.159,2.239-1.159,7.158c0,4.96,0.279,6.239,1.159,7.159c0.64,0.64,1.4,1,3.44,1
			h2.359C319.22,830.762,320.5,830.002,323.14,828.162z"/>
		<path fill="#FFFFFF" d="M379.458,834.001h-2.08v-13.638h-17.197v13.638h-2.079v-27.995h2.079v12.517h17.197v-12.517h2.08V834.001z
			"/>
		<path fill="#FFFFFF" d="M396.462,832.801c-1.36-1.319-1.92-3.079-1.92-9.438c0-6.358,0.56-8.078,1.92-9.438
			c0.92-0.92,2.159-1.16,4.358-1.16h4.999c2.24,0,3.44,0.24,4.4,1.16c1.32,1.359,1.88,3.079,1.88,9.438
			c0,6.359-0.559,8.119-1.88,9.438c-0.96,0.96-2.159,1.2-4.4,1.2h-4.999C398.621,834.001,397.382,833.761,396.462,832.801z
			 M397.821,831.441c0.64,0.64,1.399,0.8,3.159,0.8h4.68c1.76,0,2.56-0.16,3.159-0.8c0.84-0.84,1.279-2.04,1.279-8.079
			c0-5.998-0.439-7.198-1.279-8.038c-0.6-0.64-1.399-0.8-3.159-0.8h-4.68c-1.76,0-2.52,0.16-3.159,0.8
			c-0.84,0.84-1.279,2.04-1.279,8.038C396.542,829.401,396.981,830.602,397.821,831.441z"/>
		<path fill="#FFFFFF" d="M428.66,812.765v3.039c2.92-2.319,4.08-3.079,6.64-3.079h2.199c2.479,0,3.72,0.399,4.64,1.319
			c1.319,1.36,1.68,3.08,1.68,9.318c0,6.279-0.36,7.999-1.68,9.319c-0.92,0.919-2.16,1.359-4.64,1.359H435.3
			c-2.56,0-3.72-0.72-6.64-3.079V840h-1.999v-27.235H428.66z M428.66,817.124v12.478c2.64,1.92,3.96,2.68,6.239,2.68h2.319
			c2,0,2.76-0.36,3.399-1c0.92-0.88,1.2-2.279,1.2-7.919c0-5.639-0.28-6.998-1.2-7.918c-0.64-0.6-1.399-0.96-3.399-0.96h-2.359
			C432.58,814.484,431.26,815.244,428.66,817.124z"/>
		<path fill="#FFFFFF" d="M459.5,824.003c0.04,5.438,0.48,6.679,1.28,7.438c0.64,0.64,1.359,0.84,3.119,0.84h5.119
			c1.68,0,2.399-0.2,3-0.84c0.64-0.6,0.92-1.479,0.96-3.879h1.959c-0.12,3.239-0.479,4.318-1.479,5.318
			c-0.88,0.88-2,1.12-4.199,1.12h-5.48c-2.239,0-3.479-0.24-4.399-1.2c-1.359-1.319-1.879-3.079-1.879-9.438
			c0-6.358,0.519-8.078,1.879-9.438c0.92-0.92,2.16-1.16,4.399-1.16h4.88c2.239,0,3.479,0.24,4.398,1.16
			c1.36,1.319,1.88,3.119,1.88,9.198v0.4c0,0.32-0.12,0.48-0.479,0.48H459.5z M459.5,822.403h13.438
			c-0.04-5.039-0.44-6.279-1.24-7.119c-0.64-0.6-1.399-0.8-3.159-0.8h-4.64c-1.76,0-2.52,0.2-3.159,0.8
			C459.98,816.084,459.54,817.284,459.5,822.403z"/>
		<path fill="#FFFFFF" d="M505.381,822.163v-1.76h34.234v1.76H505.381z"/>
	</g>
</g>
</svg>
