<?xml version="1.0" encoding="utf-8"?>
<!-- Generator: Adobe Illustrator 17.0.0, SVG Export Plug-In . SVG Version: 6.00 Build 0)  -->
<!DOCTYPE svg PUBLIC "-//W3C//DTD SVG 1.1//EN" "http://www.w3.org/Graphics/SVG/1.1/DTD/svg11.dtd">
<svg version="1.1" id="Layer_1" xmlns="http://www.w3.org/2000/svg" xmlns:xlink="http://www.w3.org/1999/xlink" x="0px" y="0px"
	 width="600px" height="780px" viewBox="0 0 600 780" enable-background="new 0 0 600 780" xml:space="preserve">
<g>
	<g>
		<g>
			<g>
				<path fill="#517723" d="M49.748,707.565l-22.742-61.322l-7.512-20.709v82.031H0V572.333h19.088l21.117,61.931l6.902,20.913
					v-82.844h19.289v135.232L49.748,707.565L49.748,707.565z"/>
				<path fill="#517723" d="M112.488,710c-19.492,0-32.285-13.198-32.285-32.082v-75.94c0-18.68,12.793-32.082,32.285-32.082
					s32.283,13.402,32.283,32.082v75.94C144.771,696.802,131.98,710,112.488,710z M123.047,600.354
					c0-6.496-3.857-10.965-10.559-10.965s-10.559,4.469-10.559,10.965v79.19c0,6.497,3.857,10.965,10.559,10.965
					s10.559-4.468,10.559-10.965V600.354z"/>
				<path fill="#517723" d="M194.519,592.029v115.535h-21.523V592.029h-20.912v-19.696h62.943v19.696H194.519z"/>
				<path fill="#517723" d="M287.717,592.029v115.535h-21.523V592.029h-20.916v-19.696h62.947v19.696H287.717z"/>
				<path fill="#517723" d="M347.412,710c-19.494,0-32.285-13.198-32.285-32.082v-75.94c0-18.68,12.791-32.082,32.285-32.082
					c19.492,0,32.285,13.402,32.285,32.082v75.94C379.697,696.802,366.904,710,347.412,710z M357.971,600.354
					c0-6.496-3.857-10.965-10.559-10.965s-10.559,4.469-10.559,10.965v79.19c0,6.497,3.857,10.965,10.559,10.965
					s10.559-4.468,10.559-10.965V600.354z"/>
				<path fill="#517723" d="M426.394,707.565h-32.892V572.333h32.892c19.492,0,30.863,12.185,30.863,32.284v71.474
					C457.258,696.396,445.887,707.565,426.394,707.565z M435.736,604.416c0-8.529-3.25-12.793-10.764-12.793h-9.949v96.854h9.949
					c7.514,0,10.764-4.467,10.764-12.792V604.416z"/>
				<path fill="#517723" d="M510.254,707.565l-3.453-26.396h-19.695l-4.061,26.396H463.35l22.537-135.232h23.758l22.537,135.232
					H510.254z M497.664,607.867l-7.918,55.229h14.619L497.664,607.867z"/>
				<path fill="#517723" d="M574.213,653.146v54.418H552.69v-54.418l-24.363-80.813h21.928l14.416,56.651l14.012-56.651H600
					L574.213,653.146z"/>
			</g>
			<g>
				<g>
					<path fill="#517723" d="M300,182.64l8.945,4.471L430,247.64V135L304.383,67.359C304.765,66.655,305,65.859,305,65V52.441
						C336.665,38.856,368.335,74,400,55c-6.67-2.665-13.33-7.733-20-14.241c6.665-6.826,13.335-15.094,20-25.759
						c-31.665,19-63.335-16.144-95-2.559V5c0-2.762-2.236-5-5-5s-5,2.238-5,5v60c0,0.859,0.235,1.655,0.617,2.359L170,135v112.64
						l121.055-60.529L300,182.64z M270,135c0-16.569,13.431-30,30-30s30,13.431,30,30s-13.431,30.001-30,30.001S270,151.569,270,135
						z"/>
					<polygon fill="#517723" points="300,205.001 100,305 100,525 260,525 260,365 340,365 340,525 500,525 500,305 					"/>
				</g>
			</g>
			<g>
				<path fill="#517723" d="M91.447,778.185c-1.491,1.363-3.112,1.815-7.392,1.815h-12.58c-4.28,0-5.901-0.452-7.392-1.815
					c-2.529-2.27-4.086-5.575-4.086-20.879c0-15.303,1.556-18.61,4.086-20.88c1.491-1.361,3.112-1.815,7.392-1.815h12.58
					c4.28,0,5.9,0.454,7.392,1.815c2.529,2.27,3.696,5.252,3.826,13.1h-7.262c-0.195-5.707-0.778-7.328-1.492-7.977
					c-0.518-0.454-1.037-0.715-3.242-0.715H72.254c-2.205,0-2.723,0.261-3.242,0.715c-0.714,0.648-1.622,2.658-1.622,15.757
					c0,13.098,0.908,15.107,1.622,15.757c0.519,0.455,1.037,0.714,3.242,0.714h11.023c2.205,0.064,2.724-0.259,3.242-0.714
					c0.713-0.649,1.296-1.945,1.492-8.69h7.327C95.015,773.386,93.976,775.915,91.447,778.185z"/>
				<path fill="#517723" d="M146.948,734.61c4.28,0,5.9,0.454,7.392,1.815c2.529,2.27,4.085,5.577,4.085,20.88
					c0,15.304-1.556,18.609-4.085,20.879c-1.492,1.363-3.112,1.815-7.392,1.815h-12.969c-4.28,0-5.9-0.452-7.392-1.815
					c-2.528-2.27-4.084-5.575-4.084-20.879c0-15.303,1.556-18.61,4.084-20.88c1.492-1.361,3.112-1.815,7.392-1.815H146.948z
					 M131.515,773.062c0.519,0.455,1.038,0.714,3.242,0.714h11.413c2.205,0.064,2.724-0.259,3.243-0.714
					c0.713-0.649,1.621-2.659,1.621-15.757c0-13.099-0.908-15.108-1.621-15.757c-0.519-0.454-1.038-0.715-3.243-0.715h-11.413
					c-2.204,0-2.723,0.261-3.242,0.715c-0.713,0.648-1.621,2.658-1.621,15.757C129.894,770.403,130.802,772.413,131.515,773.062z"/>
				<path fill="#517723" d="M211.592,767.227h-17.313L190.324,780h-7.197l14.395-43.833c0.454-1.492,0.842-1.751,2.593-1.751h6.29
					c1.621,0,2.075,0.259,2.593,1.751L223.393,780h-7.846L211.592,767.227z M196.16,761.132h13.487l-6.225-20.362h-0.973
					L196.16,761.132z"/>
				<path fill="#517723" d="M256.588,773.776h21.981V780h-29.243v-45.39h7.262V773.776z"/>
				<path fill="#517723" d="M305.605,780v-45.39h7.262V780H305.605z"/>
				<path fill="#517723" d="M361.108,740.834V780h-7.261v-39.166h-14.266v-6.224h35.791v6.224H361.108z"/>
				<path fill="#517723" d="M402.086,780v-45.39h7.263V780H402.086z"/>
				<path fill="#517723" d="M463.294,734.61c4.28,0,5.901,0.454,7.393,1.815c2.528,2.27,4.085,5.577,4.085,20.88
					c0,15.304-1.557,18.609-4.085,20.879c-1.491,1.363-3.112,1.815-7.393,1.815h-12.968c-4.281,0-5.901-0.452-7.394-1.815
					c-2.529-2.27-4.084-5.575-4.084-20.879c0-15.303,1.555-18.61,4.084-20.88c1.492-1.361,3.112-1.815,7.394-1.815H463.294z
					 M447.861,773.062c0.519,0.455,1.037,0.714,3.243,0.714h11.411c2.206,0.064,2.724-0.259,3.243-0.714
					c0.712-0.649,1.62-2.659,1.62-15.757c0-13.099-0.908-15.108-1.62-15.757c-0.52-0.454-1.037-0.715-3.243-0.715h-11.411
					c-2.206,0-2.725,0.261-3.243,0.715c-0.712,0.648-1.62,2.658-1.62,15.757C446.241,770.403,447.149,772.413,447.861,773.062z"/>
				<path fill="#517723" d="M539.998,780h-7.392c-1.881,0-2.594-0.388-3.373-2.14l-17.314-33.394h-0.971V780h-7.068v-45.39h8.039
					c1.881,0,2.53,0.39,3.308,2.14l16.729,31.838h0.973V734.61h7.068L539.998,780L539.998,780z"/>
			</g>
			<g>
				<path fill="#517723" d="M320.145,521.342c-0.089-0.192-0.089-0.221-0.089-0.221c-0.133-0.781-1.665-1.496-1.665-1.496
					s0-0.486,0-0.663s-0.818-0.708-1.039-0.774s-1.481,0.243-1.481,0.243l-1.216-0.575c-0.022-0.486-0.862-0.928-0.862-0.928
					c0.022-0.044,0.088-0.752,0.088-0.752c0.597,0.111,0.442-0.376,0.442-0.376s0.044-0.531-0.597-0.973s-2.343-0.84-2.343-0.84
					l-0.155-0.144c0.387-0.055-0.099-0.752-0.099-0.752c0.387-0.21,0.033-1.116,0.033-1.116c0.243-0.177,0.332-1.017,0.133-1.636
					s-0.287-1.968-0.287-1.968c0.205-0.109,0.002-1.15,0.002-1.15c-0.111-0.27-0.267-0.354-0.267-0.354s0.06-7.452,0.133-9.064
					c0.135-3.007-0.442-5.969-0.509-6.632c-0.066-0.663-0.309-2.741-0.332-3.051c-0.022-0.309-0.022-1.194,0.044-1.614
					s-0.111-1.415-0.133-1.746s0-1.99,0-1.99l-0.021-0.075c0.661-0.117,1.205-0.212,1.436-0.257
					c0.796-0.155,0.752-0.553,0.752-0.553c0.597,0.044,3.404-1.415,4.09-1.857c0.685-0.442,0.619-1.039,0.619-1.039
					c-0.066-0.884-3.493-12.27-3.493-12.27l0.243,0.111c0,0,0.111,0.464,0.133,0.641s1.017-0.066,1.282-0.044
					s1.216-0.597,1.304-0.752c0.089-0.155,0.73-0.243,0.928-0.398c0.199-0.155,0.42-0.84,0.553-1.128
					c0.133-0.287,0.199-1.393,0.221-1.57s0.464-1.348,0.508-1.57c0.044-0.221-0.332-1.437-0.531-1.879s-0.619-3.891-0.641-4.355
					c-0.022-0.464-0.332-2.476-0.553-3.25s-1.017-5.195-1.348-6.809c-0.332-1.614-1.658-6.92-1.968-7.693
					c-0.309-0.774-0.42-3.736-0.464-4.046c-0.044-0.31,0-4.51,0-4.51s1.282-0.995,2.277-1.548s0.995-1.525,0.995-1.525
					s-0.84-1.945-1.282-2.653c-0.442-0.707-1.99-3.891-2.343-4.333c-0.354-0.442-1.371-0.752-1.768-0.928
					c-0.398-0.177-2.609-0.973-3.272-1.105c-0.663-0.133-1.621-0.339-1.621-0.339l-0.236-0.192c0,0-0.472-0.457-0.619-0.545
					s-0.796-0.825-0.84-0.899c-0.044-0.074-0.884-0.781-1.223-0.943s-0.501-0.354-0.501-0.354l-0.073-0.004
					c0.13-0.377,0.294-1.4,0.294-1.4c0.365-0.055,1.415-1.758,1.415-1.758c0.177,0,0.376-0.122,0.376-0.122
					c0.486,0.044,0.951-0.575,1.172-0.917c0.221-0.343,0.332-1.614,0.354-1.746c0.022-0.133,0.155-0.442,0.243-0.719
					c0.088-0.276,0.077-0.497,0.055-1.116s-0.387-0.796-0.42-0.873c-0.033-0.077,0.088-0.254,0.088-0.254
					c0.973-1.581,0.619-3.979,0.486-4.444c-0.133-0.464-1.452-3.217-1.662-3.404s-0.918-0.921-1.061-1.12
					c-0.144-0.199-0.859-0.626-1.157-1.002c-0.299-0.376-1.525-0.951-1.658-0.995s-0.619-0.099-0.884-0.144
					c-0.265-0.044-0.663-0.099-1.161-0.144c-0.497-0.044-0.431-0.033-0.73,0c-0.298,0.033-0.497,0.166-0.652,0.265
					c-0.155,0.1-0.431-0.033-0.851-0.133c-0.42-0.099-0.962-0.033-1.26,0s-0.564,0.287-0.862,0.354
					c-0.298,0.066-0.641,0.42-0.917,0.486c-0.276,0.066-0.497,0.52-0.807,0.796c-0.309,0.276-0.508,0.442-1.028,0.884l-0.147,0.368
					c0,0-0.107-0.081-0.162,0.306s-0.276,1.116-0.542,1.348c-0.265,0.232-0.442,0.73-0.597,1.161s-0.243,1.337-0.309,1.625
					c-0.066,0.287-0.111,0.984-0.077,1.139c0.033,0.155-0.099,0.641-0.166,0.906c-0.066,0.265,0.033,0.741,0.077,1.15
					s0.553,1.337,0.763,1.393c0.21,0.055,0.033,0.177,0.033,0.177c-0.52,0.486-0.276,1.813-0.166,2.1
					c0.111,0.287,0.398,0.807,0.431,1.293s0.52,1.249,0.818,1.559s1.127,0.155,1.127,0.155c0.199,0.663,1.238,1.614,1.326,1.769
					c0.041,0.071,0.086,0.359,0.124,0.649c-0.036,0.012-0.74,0.252-0.927,0.324c-0.192,0.074-0.722,1.179-0.973,1.489
					c-0.25,0.31-1.091,1.562-1.091,1.562l-0.074,0.295c0,0-1.002,0.472-1.503,0.56c-0.501,0.088-2.24,0.295-3.39,0.531
					c-1.15,0.236-1.857,1.975-1.857,1.975c-0.472,0.118-1.179,1.415-1.385,1.887c-0.206,0.472-1.562,3.39-1.651,3.743
					c-0.089,0.354-0.796,1.739-0.825,1.945c-0.027,0.188,1.018,0.96,1.208,1.098c-0.218,1.694-1.065,8.155-1.429,9.056
					c-0.42,1.039-0.862,4.001-0.862,5.571s1.105,8.445,1.194,8.865c0.088,0.42,0.066,1.371,0,1.791
					c-0.066,0.42,0.221,1.304,0.287,1.503c0.066,0.199-0.088,1.172-0.265,2.034s-0.287,3.272-0.287,3.272
					c-0.265,0.929-0.221,1.702-0.155,2.211c0.066,0.508,1.349,2.41,1.349,2.41c0.155,0.221,0.707-0.177,0.707-0.177
					c0.066,0.442,1.407,1.157,1.407,1.157s-0.56,6.75-0.707,7.575s-0.501,7.222-0.501,7.222c0.265,0.324,2.682,0.501,2.682,0.501
					c-0.037,0.648,0.192,0.811,0.192,0.811c0.641-0.133,3.161,0.044,3.692,0.066c0.379,0.016,1.154,0.212,2.13,0.347l-0.001,0.014
					c0,0-0.059,4.097-0.059,4.716c0,0.619-0.71,6.514-0.766,7.87c-0.11,2.638,1.205,9.127,1.205,9.127
					c-0.497,0.1-0.276,0.984-0.232,1.315c0.044,0.332,0.221,0.619,0.177,0.796s0.199,0.553,0.332,0.73s0.066,0.84-0.022,1.039
					s0.088,0.818,0.088,0.818s-0.597,1.105-0.641,1.393c-0.044,0.287,0.111,0.73,0.287,0.796c0.177,0.066,0.376,0.354,0.332,0.508
					c-0.044,0.155,0.31,0.619,0.354,0.685s-0.111,0.243-0.133,0.354s0.111,0.398,0.111,0.398l-0.243,0.155l-0.663,2.343
					l-0.354,0.906c-0.287,0.265-0.553,2.1-0.553,2.1c-0.265,0.287-0.354,1.26-0.42,1.525s-0.155,0.641-0.155,0.641
					s-0.287,0.354-0.398,0.73c-0.111,0.376,0.089,1.326,0.133,1.503s2.657,1.172,4.691,1.216s4.616-0.42,4.733-0.617
					c0.116-0.196,0.149-1.24,0.104-1.528c-0.046-0.287-0.419-0.243-0.419-0.243c0.111-0.221-0.383-1.312-0.383-1.312
					c0.089-0.118-0.295-1.474-0.295-1.474c0.737-0.472,0.59-2.004,0.501-2.211c-0.088-0.206,0-1.002,0-1.002
					c0.265-0.147-0.383-2.004-0.383-2.004l-0.28-1.076c0,0,0.221-0.56,0.265-0.737s-0.118-0.84-0.089-1.017
					c0.03-0.177,0.575-0.796,0.575-1.105s-1.415-1.503-1.489-1.68s0.074-0.575,0.118-0.752s-0.295-0.811-0.295-0.811
					s0.015-0.634,0.015-0.811s0.324-1.061,0.354-1.4c0.029-0.339-0.354-0.457-0.354-0.457s0.656-6.426,0.56-7.752
					c-0.074-1.031-0.118-4.746-0.029-5.512c0.088-0.766,1.12-3.861,1.458-5.415c0.307-1.413,0.179-2.559,0.165-2.679
					c0.461-0.007,0.809-0.011,0.979-0.011c0.36,0,0.882,0.028,1.421,0.061l-0.006,0.027c0,0,0.066,1.724,0.11,2.343
					c0.044,0.619,1.349,3.847,1.452,4.355c0.103,0.508,0.073,4.421,0.007,5.018c-0.066,0.597,0.354,3.316,0.531,3.869
					c0.177,0.553,0.575,2.83,0.641,3.581c0.066,0.752,0.685,4.355,0.685,4.355c-0.368,0-0.295,1.046-0.354,1.518
					c-0.059,0.472,0.589,1.12,0.589,1.12c-0.118,0.531,0.074,1.282,0.074,1.282c-0.324,0.059-0.575,0.604-0.648,0.781
					c-0.074,0.177-0.03,1.533-0.03,1.533c0.766,0.619,0.575,0.958,0.575,0.958c-0.28-0.015-0.324,0.354-0.398,0.59
					s-0.044,0.545-0.221,0.973c-0.177,0.427-0.383,0.707-0.486,0.855c-0.103,0.147-0.457,2.594-0.457,2.594
					c-0.531,0.029-0.634,0.766-0.634,0.928s-0.133,1.739-0.162,1.872s0.236,0.427,0.457,0.575s4.746,1.032,5.527,1.091
					s5.63,1.26,6.927,1.282s3.434-0.059,3.64-0.103c0.206-0.044,0.398-0.501,0.398-0.501c0.25-0.059,0.354-0.796,0.354-0.796
					c0.177-0.28-0.088-1.002-0.088-1.002C320.587,522.271,320.233,521.534,320.145,521.342z M287.647,445.396
					c-0.979,3.47-1.714,6.421-2.264,8.919c-0.355-0.919-0.699-1.964-0.772-2.339c-0.133-0.685,0.022-5.173,0.133-6.079
					s0.31-4.245,0.354-4.886s0.486-2.343,0.619-2.984c0.133-0.641,1.215-5.097,1.215-5.097l0.063-0.617
					c0.014,0.133-0.016,0.363-0.063,0.617c-0.102,0.55-0.286,1.206-0.286,1.206l0.206,0.472c-0.56,1.415,0.531,3.095,1.002,4.48
					C288.325,440.474,287.647,445.396,287.647,445.396z M313.41,453.119c0.206,0.413,1.002,2.505,0.766,3.124
					c-0.236,0.619-0.766,1.945-0.752,2.859c0.015,0.914,0.147,1.813,0.177,2.078s-0.03,2.137-0.103,2.594
					c-0.074,0.457-0.236,1.621,0.442,1.636c0.678,0.015,0.973-0.678,1.017-1.282s0.383-2.196,0.265-2.314
					c0,0,0.369,0.192,0.457,0.088c0,0-0.118,1.267,0.251,1.724c0,0-0.192,0.84-0.133,1.12c0,0-0.811,0.31-0.811,0.914
					c0,0-0.118,0.427-0.28,0.368s-0.766-0.486-1.408-0.265c0,0-1.378-9.535-1.511-10.361c-0.133-0.825-0.825-5.262-1.12-8.887
					C310.668,446.516,313.203,452.706,313.41,453.119z"/>
			</g>
		</g>
	</g>
</g>
</svg>
